<svg viewBox="0 0 328 438" fill="none" xmlns="http://www.w3.org/2000/svg">
<path d="M108 93.5L119 100L122 93.5L126 82L136 73.5L150 67.5H162L173.5 64.5L184.5 62H203L217 73.5H230L248.5 82L258.5 100L269.5 103.5L281.5 105.5L293.5 117V125L303.5 136.5V147L310.5 162L307.5 176L310.5 191.5L303.5 201.5L301.5 207.5L289 215V227L281.5 241.5L272 242.5L261.5 253.5H250.5L245.5 260.5L230 270L217 276L200 273L184.5 264.5L170 276L150 280.5L132.5 276L115.5 264.5L95.5 253.5L83 239.5L67 230.5L56.5 227L49 217.5L44.5 207.5L37.5 205L30 197.5L27.5 182.5L32.5 169.5L41.5 162L37.5 152.5V139.5L41.5 129L49 123H56.5L59.5 119.5L67 108L77.5 97.5L95.5 90.5L108 93.5Z" fill="white"/>
<path d="M263.377 408.319C263.217 408.869 263.077 409.829 262.877 410.319C256.457 426.399 234.077 424.119 229.407 406.819C228.577 403.759 229.167 400.689 228.657 400.329C224.697 397.489 226.847 407.159 219.167 408.319C210.177 409.679 207.857 399.799 199.687 399.329C189.567 398.739 191.947 403.699 190.447 406.319C183.557 418.329 167.677 418.029 160.467 410.319C149.507 398.599 155.977 375.409 173.957 377.599C168.027 364.289 169.877 352.569 179.957 342.129C179.797 340.549 168.767 341.099 171.217 328.389C160.587 328.749 149.947 326.789 140.237 322.389C138.237 326.259 134.767 329.179 130.497 330.129C140.707 337.759 128.067 341.239 132.497 346.119C129.697 355.569 135.117 360.529 138.987 369.099C139.347 374.659 138.287 380.369 134.487 384.589C144.317 392.509 137.087 404.679 125.747 396.829C125.537 396.929 126.517 398.169 126.497 401.329C126.487 403.669 126.597 406.579 125.997 408.819C125.747 409.759 123.277 413.789 122.497 414.819C122.117 412.799 116.067 419.169 109.257 415.319C106.007 413.479 104.897 406.739 106.007 403.329C107.377 401.139 108.867 395.479 113.997 395.339C121.527 395.129 123.207 411.169 112.497 413.079C123.777 415.129 127.487 396.419 114.497 393.849C113.827 393.719 112.987 394.169 112.997 393.349C118.717 392.789 122.597 395.179 121.487 391.099C120.217 386.419 94.1271 384.389 94.0071 405.839C93.9871 409.489 94.4471 412.379 97.0071 415.329L95.0071 416.829C92.6671 414.389 90.6071 411.839 90.0071 408.339C89.8771 407.589 90.0971 406.639 90.0071 405.839C89.8271 404.169 89.8871 402.199 90.5071 400.589C90.3371 399.399 87.1571 401.359 83.2671 399.339C78.1671 396.699 81.5071 389.649 76.2771 390.849C74.9971 391.139 65.5971 401.939 52.2971 393.349C33.8671 381.449 47.3771 350.419 68.7871 358.379C60.0871 341.399 84.3171 337.969 86.7771 336.899C96.0671 332.839 88.8971 327.209 89.5271 323.659C89.8671 321.759 93.5271 318.979 93.5271 318.659C93.5271 317.289 77.0071 306.879 93.0271 296.679C91.6171 287.659 99.2671 285.819 99.5171 284.689C91.0571 256.859 103.467 262.659 83.2771 264.959C79.4071 265.399 70.8171 265.259 68.7871 265.959C64.9871 267.259 63.7771 275.769 55.7971 270.459C52.1971 272.169 48.0971 272.649 44.3071 270.959C37.5471 283.359 28.0971 274.909 20.5771 268.209C17.4671 263.479 19.2771 259.519 16.0771 256.219C15.0571 246.069 24.3071 231.589 35.3071 238.979C38.1371 234.749 44.1871 231.889 48.7971 234.979C53.9371 238.419 46.2171 241.489 68.5271 233.729C68.9471 231.939 47.1071 234.539 43.5471 210.749C21.7971 205.399 21.0971 172.439 37.5471 160.789C33.3471 149.169 33.4971 130.719 44.7871 123.069C53.1571 117.399 54.0271 125.479 60.5271 113.329C56.2171 110.679 55.3871 103.839 56.5271 99.3386C42.6171 92.8586 45.0471 71.7786 61.5271 72.8586C61.0171 68.5286 63.3871 64.6886 66.5271 61.8686C63.5571 58.2686 64.2171 53.1286 65.5271 48.8786C65.9871 47.3986 76.6571 25.7586 78.0171 23.8986C81.5171 19.1086 85.3971 15.1486 91.7571 16.1586C93.7571 16.4786 121.867 32.6986 127.727 34.6486C139.707 24.6086 154.757 26.2986 156.207 43.6386C170.637 38.2586 178.747 47.2886 176.187 61.6286C190.337 54.5286 208.947 59.2686 218.657 71.6186C235.297 68.0986 257.307 80.3686 260.127 97.5986C264.217 97.5086 266.597 97.7986 269.117 101.099C282.907 96.3086 299.327 113.649 297.847 126.829C298.337 128.249 309.407 132.229 306.337 148.309C315.747 154.599 314.727 166.859 308.837 175.289C314.547 183.629 314.027 197.989 304.837 203.769C304.987 211.599 297.207 215.539 290.847 217.759C293.917 229.539 283.877 247.659 271.117 246.989C263.587 258.599 254.997 255.929 254.377 256.729C258.717 268.659 277.547 270.349 272.367 283.709C284.677 287.219 279.717 294.819 279.857 296.199C284.987 302.899 280.027 310.059 274.607 314.939C267.077 315.979 261.337 320.979 255.627 312.439C242.397 316.439 244.587 304.999 243.137 302.949C242.947 302.679 240.457 302.369 238.137 298.449C230.287 298.549 221.527 288.959 229.397 284.209C214.777 269.849 218.887 282.269 217.407 293.699C216.627 299.699 215.277 305.789 213.907 311.689C214.557 312.939 216.297 311.109 218.657 312.439C223.457 315.149 222.397 332.009 218.407 336.169C226.217 340.969 224.637 347.429 225.147 347.909C236.067 349.029 238.867 353.829 252.127 352.909C260.867 356.179 263.447 365.999 258.377 373.639C269.527 376.089 269.797 385.759 258.877 388.629C265.187 395.319 265.817 399.829 263.377 408.359V408.319Z" fill="#29112A"/>
<path d="M113.997 395.329L114.497 393.829C127.497 396.409 123.777 415.119 112.497 413.059C123.207 411.149 121.527 395.109 113.997 395.319V395.329Z" fill="#AB819D"/>
<path d="M114.747 401.329C117.587 401.109 118.827 406.729 113.247 404.829C108.457 414.669 110.137 401.689 114.747 401.329Z" fill="#E7CADC"/>
<path d="M182.937 275.929C182.807 278.909 182.727 283.549 182.937 286.419C179.237 278.169 168.137 282.199 167.947 283.669C167.887 284.109 174.787 289.659 170.197 290.909C168.567 291.349 162.857 284.439 154.707 287.909C149.627 290.069 151.767 293.529 150.707 294.899C149.957 295.869 131.017 306.989 130.977 308.639C130.817 314.689 143.157 302.979 151.707 305.389C156.507 306.739 148.807 309.859 149.707 310.889C152.954 311.469 156.2 312.052 159.447 312.639C152.887 316.849 143.887 318.599 159.697 319.879C164.687 320.289 171.937 319.329 176.937 318.379C177.127 320.349 178.377 320.369 179.937 320.379C179.377 323.009 165.027 322.759 160.207 322.379C146.767 321.299 132.617 315.079 121.987 306.889C122.747 303.159 125.157 300.509 126.987 297.399C142.377 296.259 138.927 285.999 129.987 283.909C129.437 281.329 132.597 280.749 134.487 279.909C148.257 285.069 154.797 285.649 168.707 279.409C181.177 273.819 182.507 266.309 182.947 275.909L182.937 275.929Z" fill="#246644"/>
<path d="M263.377 145.529C261.317 148.139 258.147 151.369 254.637 151.529C243.567 140.209 226.977 133.389 211.167 134.539C208.577 125.589 205.147 117.289 199.427 109.809C199.097 109.379 199.957 108.849 199.927 108.809C198.477 108.589 198.667 108.359 197.927 107.559L200.427 104.559C202.107 106.259 208.137 111.389 208.917 112.799C210.847 116.299 209.787 120.839 211.667 122.039C231.507 122.169 229.767 133.729 232.147 134.529C234.957 135.009 238.017 133.629 240.637 134.029C241.537 134.169 256.827 140.089 257.627 140.519C259.827 141.729 261.857 143.489 263.377 145.519V145.529Z" fill="#DDB79F"/>
<path d="M102.007 295.909C99.227 300.249 102.527 305.639 106.257 308.399C107.987 309.679 123.017 316.459 125.487 315.389C126.607 316.069 131.817 317.799 131.977 318.639C126.807 329.249 121.247 328.759 110.747 325.379C104.007 323.209 89.007 312.099 91.017 304.149C91.637 301.689 97.427 300.899 99.757 292.409C100.447 293.429 101.197 295.079 102.007 295.909Z" fill="#264B43"/>
<path d="M94.5071 129.539C91.4671 135.209 90.4571 141.719 91.2571 148.029C62.1271 150.299 55.8671 166.809 53.7871 167.509C49.0071 169.119 41.9971 163.129 41.5471 151.019C44.4371 154.459 48.6571 160.119 53.7871 159.009C54.5871 158.839 62.4771 148.039 63.5271 146.269C64.7471 144.209 65.5471 138.579 67.2771 137.529C74.0871 133.399 59.7271 153.769 77.2671 140.529C95.2071 147.629 78.7971 124.089 94.5071 129.539Z" fill="#DDB79F"/>
<path d="M211.417 299.909C211.397 300.069 211.437 300.249 211.417 300.409C207.787 305.849 199.327 313.649 192.927 309.899C196.047 305.259 192.607 291.359 185.937 290.169C185.607 286.289 187.387 283.289 187.437 282.929C187.477 282.589 187.797 282.489 187.937 281.429C197.917 275.099 203.797 287.559 204.677 288.419C205.207 288.939 209.907 286.329 211.417 299.909Z" fill="#5AC25F"/>
<path d="M264.877 143.529C261.967 138.529 266.107 126.609 258.387 122.299C258.077 121.299 266.787 112.249 254.137 105.059C245.987 112.619 254.897 96.6686 243.647 87.5686C238.737 83.5986 231.117 81.2486 224.907 81.0786C223.137 81.0286 219.457 82.4986 217.917 80.5786C227.557 68.0986 262.017 89.0486 253.387 104.309C260.307 100.959 264.607 104.769 265.377 111.799C266.567 122.629 260.277 119.429 260.877 122.289C262.167 124.059 264.677 123.419 266.377 125.289C270.257 129.559 267.407 139.099 264.877 143.529Z" fill="#FBFAFB"/>
<path d="M180.937 70.0886C178.417 73.1286 178.097 76.2286 177.937 80.0786C177.937 80.0786 180.352 81.6924 180 82.9999C179.149 86.1605 159 86.4999 159 86.4999C162.5 82.4999 161.5 78.9999 157.5 82.4999C144.95 80.9499 142.677 80.7286 132.977 86.5686C131.067 87.7186 128.967 88.5686 126.977 89.5686C128.277 85.7186 132.987 80.0286 136.217 77.5786C149.257 67.6986 162.447 70.1486 165.697 69.5886C168.927 69.0286 174.117 62.5586 180.937 70.0886Z" fill="#FBFAFB"/>
<path d="M224.907 81.0786C230.037 82.2386 227.507 83.6686 229.907 86.5786C230.587 87.3986 233.107 89.6086 233.907 88.0786C233.947 88.1486 234.707 87.7986 235.407 88.8286C236.017 91.6186 230.947 93.1586 228.917 96.8186C231.627 108.359 226.317 103.429 219.177 106.559C216.577 106.309 211.517 95.5286 211.437 94.8186C211.377 94.3086 212.667 91.3686 212.937 90.5686C212.407 93.6586 216.157 92.0786 218.687 93.0686C223.077 94.7886 226.887 100.979 225.427 95.8186C224.847 93.7586 217.377 88.8186 213.437 90.0686C213.747 89.3286 214.547 88.5786 214.937 87.8186C213.857 86.6786 213.167 86.6686 212.437 85.0686C217.327 86.2386 215.957 83.1286 217.937 80.5686C219.487 82.4886 223.157 81.0186 224.927 81.0686L224.907 81.0786Z" fill="#FBFAFB"/>
<path d="M31.5569 181.999C34.0469 178.289 34.8669 182.069 36.8069 182.499C43.9469 184.099 47.7069 177.139 45.0469 171.009C46.8669 171.909 49.2369 172.649 51.2969 172.509L51.5469 173.759C49.5569 178.519 47.6969 183.579 49.0469 188.749C37.9469 195.149 48.1769 208.609 37.8069 201.489C35.5169 199.919 31.6869 193.559 32.0569 191.749C32.2669 190.729 39.6269 186.139 31.5569 188.749C31.6769 186.519 31.3969 184.229 31.5569 182.009V181.999Z" fill="#DDB79F"/>
<path d="M126.987 297.409C125.157 300.519 122.757 303.179 121.987 306.899C119.247 304.789 103.987 291.019 103.497 288.909L107.497 285.409C111.027 285.479 116.857 288.509 118.487 284.409C119.637 285.249 120.057 286.499 121.237 287.409C132.997 292.019 129.797 292.619 126.987 297.399V297.409Z" fill="#264B43"/>
<path d="M134.477 279.919C132.587 280.759 129.437 281.339 129.977 283.919C126.087 283.009 121.947 283.409 117.987 283.419C116.157 282.069 114.487 280.559 112.487 279.419C110.517 278.299 110.377 276.269 106.487 277.919C101.057 275.589 101.787 267.549 102.237 262.429C107.877 268.099 114.477 267.689 115.727 268.429C118.627 273.629 128.887 277.829 134.467 279.919H134.477Z" fill="#264B43"/>
<path d="M211.417 299.909C209.907 286.329 205.207 288.939 204.677 288.419C203.797 287.559 197.927 275.099 187.937 281.429C188.367 278.139 187.137 271.369 188.687 270.939C195.937 274.999 203.437 280.319 212.167 279.429C214.387 286.329 212.307 293.239 211.417 299.909Z" fill="#246644"/>
<path d="M211.917 84.5786C210.657 87.3886 206.917 81.4086 202.177 79.5786C199.677 78.6186 190.577 81.1186 194.437 69.5886C196.507 70.7886 197.627 66.2086 203.677 67.0886C205.257 67.3186 214.76 73.54 215 75C215.54 78.18 213 77.5 211.917 84.5786Z" fill="#FBFAFB"/>
<path d="M107.997 369.349C110.387 371.499 109.967 375.149 113.247 374.849C115.677 374.619 119.687 366.769 126.237 369.349C131.297 371.339 128.097 375.339 127.487 378.339C121.217 379.299 115.177 377.799 108.997 376.839C108.377 376.739 106.417 373.899 103.997 377.839C101.927 377.479 99.6771 377.349 97.9971 375.839C100.337 371.079 100.857 367.029 107.987 369.349H107.997Z" fill="#FBFAFB"/>
<path d="M179.937 320.389C178.377 320.389 177.127 320.359 176.937 318.389C184.717 316.919 189.367 317.209 186.427 312.389C188.517 311.959 191.637 311.799 192.917 309.889C199.307 313.639 207.767 305.839 211.407 300.399C210.717 305.189 211.667 310.879 207.157 314.389C203.427 315.759 181.327 320.389 179.927 320.389H179.937Z" fill="#217B48"/>
<path d="M57.0371 383.339C53.9271 388.089 49.9171 381.859 48.0471 378.839C47.9471 377.749 47.9371 375.919 48.0471 374.839C53.5571 374.719 55.6671 366.409 51.5471 366.849C57.0071 359.529 65.7571 357.749 72.0271 365.099C58.4471 363.139 52.9771 374.699 57.0371 383.339Z" fill="#C52361"/>
<path d="M200.427 104.559L197.927 107.559C192.357 101.539 182.667 96.0386 174.447 95.5686C178.907 93.6286 162.557 90.1686 155.957 90.0686C156.007 89.9886 155.807 89.9286 156.957 88.5686C166.587 89.3786 176.497 88.8586 185.687 92.5686C191.607 94.9586 195.977 100.049 200.427 104.559Z" fill="#EFDFC4"/>
<path d="M158.457 79.0786C158.477 79.1686 159.957 79.6986 159.957 79.8286C159.957 80.3686 153.477 86.4786 152.467 87.5686C143.367 84.7986 136.967 89.8986 132.987 86.5686C142.687 80.7286 145.917 77.5286 158.467 79.0786H158.457Z" fill="#F9F4DB"/>
<path d="M68.527 128.539C67.257 128.659 67.207 127.449 66.277 127.539C62.677 127.899 54.687 129.489 50.287 130.039C43.527 137.519 47.557 140.629 47.537 141.529C43.417 138.759 40.117 147.799 40.547 140.279C40.937 133.379 49.357 122.339 57.287 126.039C61.287 119.109 65.327 123.399 68.527 128.539Z" fill="#FBFAFB"/>
<path d="M129.977 283.919C138.927 286.009 142.367 296.269 126.977 297.409C129.787 292.629 132.997 292.029 121.227 287.419C120.047 286.519 119.627 285.259 118.477 284.419C118.427 284.389 118.027 283.449 117.977 283.419C121.937 283.409 126.077 283.009 129.967 283.919H129.977Z" fill="#5AC25F"/>
<path d="M127.487 378.349C127.367 378.929 126.527 379.229 127.237 379.849C127.747 380.159 128.107 379.219 128.487 379.349C129.847 379.819 130.717 380.239 131.987 380.849C126.737 387.029 115.037 384.709 107.507 383.349C109.367 381.889 107.327 379.989 106.007 378.349C106.657 378.259 108.947 377.699 109.007 376.849C115.187 377.809 121.217 379.309 127.497 378.349H127.487Z" fill="#D9B1BC"/>
<path d="M80.0171 346.869C80.3871 355.039 82.3471 355.319 85.5171 359.359C92.0671 367.719 99.7071 371.099 96.5071 374.849C95.6871 374.119 90.1671 372.389 88.5171 371.849C88.5771 371.639 88.9671 370.869 89.0171 370.849C89.5671 370.609 93.0871 370.789 90.5171 366.599C88.3771 363.109 85.3271 364.449 85.0171 364.349C84.9671 364.329 85.1971 363.459 84.7671 363.349C83.0271 362.909 80.0771 362.929 78.0271 362.349C77.9371 361.549 81.6971 350.129 77.5271 358.849C74.1071 354.149 74.6271 349.399 80.0271 346.859L80.0171 346.869Z" fill="#EED6CE"/>
<path d="M83.017 381.339C81.867 380.729 76.497 374.639 75.277 374.349C70.627 373.249 66.407 378.109 69.027 382.339C60.197 384.929 63.917 373.239 71.277 371.849C82.797 369.679 84.827 377.829 93.507 383.089C93.387 384.869 83.497 381.599 83.017 381.339Z" fill="#820C48"/>
<path d="M174.447 95.5686C166.517 95.1186 158.547 97.7986 152.217 102.559C151.317 97.9886 153.547 93.7586 155.967 90.0686C162.567 90.1686 178.917 93.6186 174.457 95.5686H174.447Z" fill="#DDB79F"/>
<path d="M42.297 238.959C52.997 236.689 64.217 268.429 50.287 262.439C44.687 260.029 43.987 248.349 43.547 247.199C42.647 244.839 36.267 240.239 42.297 238.959Z" fill="#217B48"/>
<path d="M35.057 260.939C34.007 260.549 31.877 260.379 31.307 259.939C28.257 257.589 35.447 244.169 29.057 252.449C15.777 261.229 21.807 246.139 25.807 243.459C34.907 237.369 46.937 255.449 35.047 260.949L35.057 260.939Z" fill="#4A9D4E"/>
<path d="M35.0571 260.939C35.4971 261.099 35.9171 265.409 42.5471 259.189C46.5271 266.069 38.7571 268.239 35.8071 267.429C34.2471 267.009 31.2071 259.169 29.3171 259.439C25.9171 259.919 34.9971 272.309 25.8171 265.929C18.2171 260.649 25.3971 257.359 25.8171 256.939C29.6171 253.059 28.8971 252.659 29.0671 252.439C35.4571 244.159 28.2671 257.579 31.3171 259.929C31.8871 260.369 34.0171 260.539 35.0671 260.929L35.0571 260.939Z" fill="#217B48"/>
<path d="M60.0369 254.939C64.6469 254.269 68.5469 250.789 73.2769 250.439C81.2769 249.849 91.2869 256.659 75.7769 242.949C73.1569 242.369 72.5069 245.409 71.2769 245.949C67.6569 247.549 62.0769 248.059 58.5369 250.449C58.0769 248.529 55.9369 245.259 56.7869 243.959C69.6669 238.009 73.6869 234.639 85.2669 245.459C88.4269 248.409 90.6369 253.259 94.0069 256.199C82.9769 262.779 68.8669 257.329 61.2869 264.439C59.2269 264.099 60.3469 256.469 60.0369 254.949V254.939Z" fill="#246644"/>
<path d="M60.0369 254.939C59.7669 253.619 58.8769 251.869 58.5369 250.439C62.0769 248.049 67.6569 247.539 71.2769 245.939C72.4969 245.399 73.1569 242.359 75.7769 242.939C91.2869 256.649 81.2869 249.849 73.2769 250.429C68.5469 250.779 64.6469 254.259 60.0369 254.929V254.939Z" fill="#5AC25F"/>
<path d="M83.0171 381.339C77.6871 384.309 85.1071 392.859 73.2771 385.839C72.8571 385.589 69.1771 382.579 69.0271 382.339C66.3971 378.099 70.6271 373.239 75.2771 374.349C76.5071 374.639 81.8771 380.739 83.0171 381.339Z" fill="#AB1156"/>
<path d="M57.0371 383.339C60.8571 391.469 68.7171 384.269 72.5271 390.579C62.2071 397.359 49.1671 391.289 48.0471 378.839C49.9171 381.849 53.9371 388.089 57.0371 383.339Z" fill="#820C48"/>
<path d="M125.487 315.399C123.007 316.469 107.987 309.689 106.257 308.409C102.527 305.649 99.237 300.259 102.007 295.919C108.887 302.989 117.077 310.319 125.487 315.399Z" fill="#468C4F"/>
<path d="M109.497 145.529C98.557 149.839 97.747 155.269 96.507 147.779C96.127 145.459 96.477 139.499 97.007 137.039C101.567 138.789 111.867 141.869 109.497 145.529Z" fill="#CFA291"/>
<path d="M286.357 120.549C282.187 116.589 281.647 113.639 281.357 113.309C276.567 107.709 275.117 111.599 270.867 114.059C270.527 112.179 270.607 109.639 269.617 107.069C275.627 103.719 284.287 109.479 287.857 114.309C292.157 120.139 293.207 123.559 286.357 120.559V120.549Z" fill="#FBFAFB"/>
<path d="M276.367 218.469C272.697 219.979 266.697 226.749 270.367 230.459C269.187 230.269 269.427 230.949 269.367 230.959C268.767 231.089 267.887 230.809 267.617 230.959C265.437 232.169 258.437 247.209 258.377 248.199C258.317 249.149 260.347 248.059 259.877 249.449C257.807 250.149 255.607 250.929 253.387 250.199C252.967 249.689 255.577 244.159 253.887 237.209C260.657 231.569 264.387 223.749 268.127 215.979C270.687 217.479 273.477 218.079 276.367 218.479V218.469Z" fill="#CFA291"/>
<path d="M285.357 219.969C288.217 231.029 274.087 243.679 271.867 239.699C270.997 238.139 272.967 234.659 269.367 239.949C268.967 237.099 272.057 232.939 269.367 230.959C269.417 230.949 269.187 230.269 270.367 230.459C271.607 231.709 274.167 231.299 275.617 230.459C283.037 226.169 275.467 217.959 285.357 219.969Z" fill="#DDB79F"/>
<path d="M285.357 219.969C275.467 217.959 283.027 226.169 275.617 230.459C274.167 231.299 271.607 231.709 270.367 230.459C266.687 226.749 272.687 219.979 276.367 218.469C278.667 218.779 281.797 218.459 284.107 217.969C284.467 218.059 285.247 219.539 285.357 219.969Z" fill="#F9F4DB"/>
<path d="M269.367 230.959C272.057 232.939 268.967 237.109 269.367 239.949C266.687 243.879 265.207 247.629 259.877 249.439C260.347 248.049 258.317 249.139 258.377 248.189C258.447 247.209 265.447 232.159 267.617 230.949C267.887 230.799 268.767 231.079 269.367 230.949V230.959Z" fill="#EECEB6"/>
<path d="M152.467 87.5786C152.347 87.7086 152.107 89.2386 150.717 90.5786C131.987 85.6186 123.057 101.219 126.987 89.5786C128.977 88.5786 131.077 87.7286 132.987 86.5786C136.967 89.9086 143.367 84.8086 152.467 87.5786Z" fill="#F9F4DB"/>
<path d="M88.7669 386.839C94.9469 389.889 110.307 383.839 97.2569 389.839C87.0769 406.329 85.3769 387.789 88.7669 386.839Z" fill="#D1A0B6"/>
<path d="M113.997 103.559C114.047 103.649 115.297 104.329 115.497 104.809C113.317 108.209 110.157 111.539 111.997 115.799C110.457 116.919 106.927 117.959 105.997 118.549C104.987 113.409 108.527 104.099 113.987 103.559H113.997Z" fill="#EECEB6"/>
<path d="M45.0471 171.009C47.7071 177.139 43.9471 184.099 36.8071 182.499C34.8671 182.069 34.0571 178.289 31.5571 181.999C31.6271 180.989 31.8771 179.989 32.0571 178.999C35.7171 178.609 39.3471 172.379 42.5471 169.509C43.3871 170.049 44.1371 170.559 45.0471 171.009Z" fill="#F9F4DB"/>
<path d="M42.5471 169.509C39.3371 172.379 35.7171 178.619 32.0571 178.999C32.9871 173.969 35.4371 169.339 39.2971 166.009C40.6171 167.029 41.1071 168.569 42.5471 169.509Z" fill="#FBFAFB"/>
<path d="M286.357 120.549C282.027 118.649 280.747 112.969 271.117 117.049C270.557 116.599 271.007 114.809 270.867 114.049C275.127 111.589 276.577 107.699 281.357 113.299C281.647 113.629 282.187 116.579 286.357 120.539V120.549Z" fill="#F9F4DB"/>
<path d="M103.997 377.849C104.357 377.909 102.677 378.809 105.997 378.349C107.317 379.979 109.357 381.879 107.497 383.349C101.637 382.289 101.207 382.219 96.0071 379.349C96.1771 378.229 97.0171 377.369 97.5071 376.349C97.8471 375.649 97.9871 375.879 98.0071 375.849C99.6871 377.359 101.927 377.489 104.007 377.849H103.997Z" fill="#AB819D"/>
<path d="M131.977 380.839C130.707 380.229 129.847 379.809 128.477 379.339L129.977 372.099C138.537 365.209 135.877 376.249 131.977 380.839Z" fill="#FBFAFB"/>
<path d="M80.0169 346.869C74.6269 349.409 74.1069 354.159 77.5169 358.859C77.2569 359.409 78.0869 361.029 76.7669 361.859C66.6169 349.349 79.6769 342.649 80.5169 344.119C80.0969 345.119 79.9669 345.759 80.0169 346.869Z" fill="#D9B1BC"/>
<path d="M65.777 366.359C66.507 366.229 72.017 366.299 72.027 366.609C52.057 369.559 62.257 382.089 61.537 383.099C58.237 387.669 53.317 368.599 65.787 366.359H65.777Z" fill="#E08EA6"/>
<path d="M88.5171 371.849C90.1771 372.389 95.6871 374.119 96.5071 374.849C96.6071 374.939 95.2171 376.219 97.5071 376.349C97.0171 377.369 96.1771 378.219 96.0071 379.349C91.7871 377.029 89.3871 374.649 86.0171 371.359C86.9971 370.569 87.5771 371.549 88.5171 371.859V371.849Z" fill="#996B8C"/>
<path d="M85.0171 364.359C83.1671 367.279 86.0871 370.279 89.0171 370.849C88.9671 370.869 88.5771 371.639 88.5171 371.849C87.5771 371.539 86.9971 370.559 86.0171 371.349C83.9671 369.349 78.2971 364.889 78.0271 362.359C80.0871 362.939 83.0371 362.919 84.7671 363.359C85.1971 363.469 84.9671 364.339 85.0171 364.359Z" fill="#D9B1BC"/>
<path d="M259.377 270.429C256.527 272.819 267.537 279.659 261.377 285.919C256.277 287.759 251.467 291.159 246.387 292.909C247.497 290.799 245.447 291.609 241.387 290.909C241.457 290.069 240.067 286.099 239.887 285.909C249.037 280.089 240.327 276.819 239.887 275.169C238.527 270.039 247.987 271.039 245.887 262.929C246.757 262.079 248.587 258.829 249.637 258.929L256.877 269.669C257.427 270.589 258.677 269.969 259.377 270.419V270.429Z" fill="#5AC25F"/>
<path d="M239.897 285.919C239.317 285.319 233.727 283.979 226.907 275.679C235.507 272.259 239.537 269.169 245.887 262.939C247.997 271.049 238.537 270.049 239.887 275.179C240.327 276.829 249.037 280.099 239.887 285.919H239.897Z" fill="#246644"/>
<path d="M261.377 285.919C267.537 279.659 256.527 272.819 259.377 270.429C263.407 273.029 270.687 275.219 269.367 282.169C268.487 286.829 261.827 285.749 261.377 285.919Z" fill="#468C4F"/>
<path d="M241.397 290.919C245.447 291.619 247.507 290.809 246.397 292.919C242.707 294.199 236.827 296.039 234.407 291.169C231.747 285.809 237.287 291.049 239.157 291.419C240.627 291.709 241.137 290.869 241.407 290.919H241.397Z" fill="#468C4F"/>
<path d="M271.867 293.909C269.727 293.949 256.497 290.339 264.377 298.159C263.377 311.029 267.167 298.259 271.867 301.909C256.317 313.449 265.657 299.029 252.887 299.159C255.897 294.189 262.907 291.229 268.627 291.419C270.907 290.569 268.667 287.909 270.127 287.419C275.367 285.679 281.337 293.729 271.877 293.909H271.867Z" fill="#246644"/>
<path d="M271.867 293.909C280.287 299.219 277.127 306.879 274.617 306.399C273.597 306.199 273.807 303.409 271.867 301.899C267.167 298.249 263.367 311.019 264.377 298.149C256.497 290.329 269.737 293.939 271.867 293.899V293.909Z" fill="#4A9D4E"/>
<path d="M256.627 300.409C259.267 300.409 252.597 310.779 250.137 308.899C247.457 306.859 254.907 300.409 256.627 300.409Z" fill="#264B43"/>
<path d="M48.0471 374.849C48.4771 370.719 49.2571 369.929 51.5471 366.859C55.6671 366.419 53.5671 374.729 48.0471 374.849Z" fill="#C52361"/>
<path d="M134.477 393.329C133.117 396.809 126.487 390.579 126.487 390.079C126.487 389.169 130.737 387.819 130.987 387.829L134.487 393.329H134.477Z" fill="#5D9D7E"/>
<path d="M191.427 337.879C187.577 334.139 190.527 329.049 189.927 324.389C190.687 323.769 190.877 323.919 190.927 323.889C197.147 325.369 212.237 323.289 215.907 318.389C220.177 321.649 217.157 332.609 213.157 335.379C208.297 338.749 197.147 338.589 191.427 337.879Z" fill="#217B48"/>
<path d="M215.917 318.389C212.247 323.289 197.157 325.369 190.937 323.889C196.857 320.339 207.297 320.579 214.167 317.399C214.897 317.339 215.417 318.019 215.917 318.399V318.389Z" fill="#5AC25F"/>
<path d="M191.427 337.879C187.977 337.449 186.647 336.589 185.927 336.379C186.067 334.939 185.737 333.269 185.927 331.879C186.327 328.959 187.687 326.199 189.927 324.389C190.527 329.049 187.577 334.139 191.427 337.879Z" fill="#1A5942"/>
<path d="M185.937 331.879C185.747 333.259 186.077 334.939 185.937 336.379C177.807 333.979 173.967 332.729 185.937 331.879Z" fill="#102934"/>
<path d="M98.7569 322.889C99.0369 322.889 102.307 326.189 103.007 326.639C94.3269 331.889 96.0869 322.889 98.7569 322.889Z" fill="#AB819D"/>
<path d="M85.5171 391.339L83.5171 390.839C84.0871 380.759 89.2171 384.199 85.5171 391.339Z" fill="#AB819D"/>
<path d="M85.5169 391.339C88.8869 399.689 83.0669 398.949 83.5169 390.839L85.5169 391.339Z" fill="#F6E7E6"/>
<path d="M107.497 285.419L103.497 288.919C102.477 284.449 105.507 285.379 107.497 285.419Z" fill="#6A9D69"/>
<path d="M134.477 393.329L130.977 387.829C133.557 387.929 135.077 391.769 134.477 393.329Z" fill="#E7F3EA"/>
<path d="M103.997 83.5786C107.747 85.6986 113.987 87.7686 113.237 93.0686C101.047 82.5386 78.7571 92.5786 68.5271 102.059C62.1571 100.849 68.2271 96.8686 76.7671 89.0686C76.7971 89.0386 77.2871 89.7686 77.5171 89.5686C77.1671 93.9286 81.4471 84.3486 90.2571 82.5786C96.3371 81.3486 98.7571 82.8686 103.997 83.5786Z" fill="#468C4F"/>
<path d="M94.5071 40.6086C94.9271 40.9086 98.7971 48.3186 99.5071 49.5986C101.507 53.2386 102.877 57.6586 105.007 61.3386C106.387 63.7186 108.737 66.3186 110.007 68.5786C114.467 76.5686 122.177 85.8886 118.747 94.0586C116.727 89.8386 113.837 86.0886 111.507 82.0686C108.827 77.4486 103.157 66.9586 101.017 62.3386C97.5471 54.8386 94.4771 42.4486 91.5271 41.1086C92.0671 39.7486 93.0971 39.5786 94.5271 40.6086H94.5071Z" fill="#D1E9B3"/>
<path d="M111.497 82.0787C109.267 81.1887 110.287 82.5287 109.497 83.0787C108.607 82.6787 107.997 81.8887 107.497 81.0787C104.547 76.2887 102.897 70.6686 99.5071 66.0886C93.9571 58.5986 91.6471 60.3187 83.0171 58.3487C88.1371 55.8987 93.0571 59.5987 98.0071 60.3487C96.1371 56.5487 90.2571 44.2987 91.5171 41.1187C94.4671 42.4587 97.5371 54.8587 101.007 62.3487C103.147 66.9787 108.817 77.4687 111.497 82.0787Z" fill="#1A1C28"/>
<path d="M133.977 71.0886C131.657 72.5586 123.277 82.0886 122.487 82.0786C120.517 74.4286 127.187 70.4386 128.487 61.5986C132.177 60.4786 131.187 65.6786 133.987 71.0886H133.977Z" fill="#246644"/>
<path d="M105.997 82.5786C107.047 84.4386 105.177 83.7386 103.997 83.5786C98.7569 82.8686 96.3369 81.3586 90.2569 82.5786C81.4469 84.3586 77.1669 93.9386 77.5169 89.5686C80.0569 87.3286 81.2869 83.2586 85.5069 81.0786C93.8769 76.7486 98.6269 79.5086 105.987 82.5786H105.997Z" fill="#1A1C28"/>
<path d="M127.977 51.5986C129.217 54.8486 128.967 58.2486 128.477 61.5886C127.177 70.4386 120.517 74.4186 122.477 82.0686C121.437 82.0586 121.517 80.6486 121.477 80.5686C119.687 77.1686 121.237 75.4286 121.977 73.0786C122.027 72.9286 121.927 72.7286 121.977 72.5786C122.837 69.9986 126.087 65.1086 126.477 62.3386C127.767 53.0886 122.007 48.5486 125.227 48.0986C126.217 47.9586 127.627 50.6786 127.977 51.5986Z" fill="#A1D783"/>
<path d="M128.477 51.0987L127.977 51.5987C127.627 50.6787 126.227 47.9687 125.227 48.0987C122.007 48.5487 127.767 53.0887 126.477 62.3387C126.087 65.1187 122.837 69.9987 121.977 72.5787L119.977 72.0787C121.707 69.9387 123.937 65.7687 124.477 63.0887C126.207 54.4087 118.897 44.7387 125.727 46.5987C127.227 47.0087 127.857 50.0087 128.477 51.0987Z" fill="#232422"/>
<path d="M98.0071 76.5786C98.9971 77.3686 105.647 80.7786 107.497 81.0786C107.997 81.8886 108.607 82.6786 109.497 83.0786C109.387 83.1586 109.937 84.0986 108.747 84.0786C108.587 84.0786 108.317 83.5386 105.997 82.5786C98.6271 79.5086 93.8871 76.7486 85.5171 81.0786C87.0371 79.4486 85.8671 79.3686 86.0171 79.0786C86.0971 78.9186 88.9771 79.0486 86.0171 77.0786C89.9971 76.7986 94.0171 76.6986 98.0071 76.5786Z" fill="#A1D783"/>
<path d="M124.487 63.0986C123.957 65.7786 121.727 69.9586 119.987 72.0886C119.117 73.1586 118.267 74.1686 117.237 75.0886C116.027 73.4386 114.837 71.6186 113.487 70.0886L124.477 63.0986H124.487Z" fill="#4A9D4E"/>
<path d="M131.477 56.5986C132.227 61.2886 133.097 66.5686 135.477 70.5886C134.397 71.2186 134.047 71.0486 133.977 71.0886C131.177 65.6786 132.167 60.4786 128.477 61.5986C128.967 58.2586 129.217 54.8586 127.977 51.6086L128.477 51.1086C129.097 52.1886 129.487 53.5386 131.477 56.6086V56.5986Z" fill="#102B21"/>
<path d="M121.987 73.0887C121.247 75.4387 119.697 77.1787 121.487 80.5787C118.497 80.9787 119.667 72.7587 121.987 73.0887Z" fill="#111B1A"/>
<path d="M99.507 66.0887C102.897 70.6687 104.557 76.2887 107.497 81.0787C105.637 80.7887 98.997 77.3687 98.007 76.5787C91.747 71.5887 85.337 58.5387 99.507 66.0887Z" fill="#217B48"/>
<path d="M104.997 41.6086C101.457 44.9586 102.907 52.9786 99.4971 49.5986C98.7871 48.3086 94.9171 40.9086 94.4971 40.6086C94.7971 37.0386 97.5671 42.3286 104.237 40.1086C104.407 40.6186 104.887 41.1486 104.987 41.6086H104.997Z" fill="#4A9D4E"/>
<path d="M160.457 64.0886C159.477 64.1886 158.437 63.9686 157.457 64.0886C155.487 64.3286 153.467 64.2686 151.457 64.5886C151.047 63.0486 154.977 63.6286 157.457 62.8386C151.637 55.6286 151.197 56.5786 148.967 65.0886C144.097 66.2086 142.327 67.7586 140.477 68.5886C137.117 64.6886 134.297 60.9286 131.487 56.5986C129.497 53.5386 129.107 52.1786 128.487 51.0986C127.867 50.0186 127.247 47.0086 125.737 46.5986C118.907 44.7386 126.217 54.3986 124.487 63.0886L113.497 70.0786C112.867 69.3686 112.147 68.9186 111.497 68.0786C97.107 49.5486 106.077 46.4686 105.007 41.5986C104.907 41.1386 104.427 40.6086 104.257 40.0986C97.577 42.3186 94.817 37.0286 94.517 40.5986C93.087 39.5686 92.057 39.7386 91.517 41.0986C90.267 44.2786 96.147 56.5386 98.007 60.3286C93.057 59.5786 88.137 55.8786 83.017 58.3286C91.647 60.2986 93.957 58.5786 99.507 66.0686C85.347 58.5186 91.747 71.5686 98.007 76.5586C94.017 76.6786 89.997 76.7686 86.017 77.0586C84.927 77.1386 77.937 74.8886 71.527 81.3086C76.477 80.2986 80.817 78.2486 86.017 79.0586C85.867 79.3386 87.037 79.4286 85.517 81.0586C81.297 83.2486 80.067 87.3086 77.527 89.5486C77.297 89.7486 76.807 89.0186 76.777 89.0486C68.237 96.8486 62.157 100.819 68.537 102.039C66.567 103.869 63.637 109.259 62.537 108.289C59.907 98.8286 66.497 95.3686 66.037 94.7986C58.407 95.7186 51.287 90.9886 53.047 82.8086C54.697 75.1186 64.267 79.5686 65.537 77.3086C67.237 74.2986 62.947 68.3786 73.027 63.3186C73.277 62.1586 67.337 60.3886 70.527 50.3286C70.867 49.2786 79.447 31.2986 80.017 30.3486C89.377 14.6986 93.027 23.7086 109.747 31.5986C138.317 45.0786 128.527 36.0386 138.727 33.5986C143.257 32.5086 149.467 34.3086 150.967 39.3486C152.657 44.9986 148.207 47.9986 151.217 49.0886C156.397 50.9786 162.687 43.9286 168.707 48.0886C172.837 50.9486 172.327 57.1786 169.457 60.8286C165.737 65.5586 161.737 63.9386 160.467 64.0786L160.457 64.0886Z" fill="#5AC25F"/>
<path d="M111.497 68.0886L109.997 68.5886C108.737 66.3186 106.377 63.7287 104.997 61.3487C102.867 57.6687 101.507 53.2487 99.4971 49.6087C102.897 52.9887 101.457 44.9687 104.997 41.6187C106.077 46.4787 97.1071 49.5687 111.487 68.0987L111.497 68.0886Z" fill="#232422"/>
<path d="M140.467 68.5886C139.187 69.1586 136.447 70.0186 135.467 70.5886C133.087 66.5686 132.227 61.2986 131.467 56.5986C134.277 60.9286 137.107 64.6886 140.457 68.5886H140.467Z" fill="#217B48"/>
<path d="M151.467 64.5887C150.677 64.7187 149.747 64.9087 148.967 65.0887C151.207 56.5787 151.637 55.6287 157.457 62.8387C154.987 63.6187 151.047 63.0487 151.457 64.5887H151.467Z" fill="#468C4F"/>
<path d="M160.457 64.0886H157.457C158.427 63.9686 159.477 64.1886 160.457 64.0886Z" fill="#0F1C14"/>
<path d="M83.7672 70.0887C86.0972 69.0187 94.0372 75.1887 93.5072 75.8387C84.9172 78.3187 81.7672 71.0087 83.7672 70.0887Z" fill="#468C4F"/>
<path d="M86.0171 77.0786C88.9771 79.0386 86.0971 78.9186 86.0171 79.0786C80.8171 78.2686 76.4771 80.3186 71.5271 81.3286C77.9371 74.9186 84.9271 77.1586 86.0171 77.0786Z" fill="#111B1A"/>
<path d="M194.427 69.5886C190.577 81.1186 199.667 78.6186 202.167 79.5786C206.907 81.3986 210.647 87.3886 211.907 84.5786C211.917 84.6086 212.087 84.3686 212.407 85.0786C213.137 86.6786 213.827 86.6886 214.907 87.8286C214.517 88.5886 213.717 89.3386 213.407 90.0786C213.117 90.7786 212.917 90.5486 212.907 90.5786C212.637 91.3686 211.347 94.3186 211.407 94.8286C211.487 95.5386 216.547 106.329 219.147 106.569C226.287 103.439 231.597 108.369 228.887 96.8286C230.927 93.1686 235.997 91.6186 235.377 88.8386C234.687 87.8086 233.917 88.1586 233.877 88.0886C232.797 86.0286 230.897 81.8686 229.877 86.5886C227.487 83.6786 230.017 82.2586 224.877 81.0886C231.087 81.2586 238.697 83.6086 243.617 87.5786C254.877 96.6786 245.957 112.619 254.107 105.069C266.757 112.259 258.047 121.309 258.357 122.309C266.077 126.629 261.947 138.549 264.847 143.539C264.427 144.279 263.867 144.879 263.347 145.539C261.827 143.519 259.797 141.749 257.597 140.539C256.797 140.099 241.507 134.179 240.607 134.049C237.987 133.649 234.927 135.029 232.117 134.549C229.727 133.749 231.467 122.189 211.637 122.059C209.757 120.859 210.817 116.309 208.887 112.819C208.107 111.409 202.067 106.279 200.397 104.579C195.947 100.069 191.577 94.9786 185.657 92.5886C176.467 88.8786 166.557 89.3986 156.927 88.5886C164.077 80.0786 166.837 84.5686 169.667 83.5886C171.007 83.1286 166.727 78.0386 178.157 83.0886C180.057 81.5586 177.877 80.7086 177.907 80.0886C178.067 76.2386 178.387 73.1386 180.907 70.0986C181.087 69.8786 183.807 71.0586 179.907 66.3486C181.087 62.0686 200.207 63.4686 198.647 65.0986C192.327 66.9386 194.517 69.2586 194.397 69.5986L194.427 69.5886Z" fill="#F9F4DB"/>
<path d="M198.177 89.5686C201.377 88.9186 204.107 91.8486 201.177 94.0686C197.637 91.6586 193.687 96.9886 192.437 94.3186C191.647 92.6286 197.797 89.6486 198.187 89.5686H198.177Z" fill="#1B0B1D"/>
<path d="M238.647 107.559C240.947 106.929 243.307 111.159 240.647 112.059C237.157 113.229 236.387 108.179 238.647 107.559Z" fill="#1B0B1D"/>
<path d="M254.627 131.539C257.327 130.769 257.797 134.479 256.127 135.039C253.617 135.879 252.387 132.179 254.627 131.539Z" fill="#1D181E"/>
<path d="M113.997 103.559C108.537 104.099 104.997 113.409 106.007 118.549C101.657 121.309 97.017 124.889 94.517 129.539C78.807 124.089 95.217 147.629 77.277 140.529C59.727 153.769 74.097 133.399 67.287 137.529C65.557 138.579 64.757 144.219 63.537 146.269C62.487 148.039 54.597 158.839 53.797 159.009C48.657 160.109 44.447 154.449 41.557 151.019C41.267 143.279 45.537 147.269 47.557 143.279C47.647 143.109 47.537 142.249 47.557 141.529C47.577 140.629 43.547 137.519 50.307 130.039C54.697 129.489 62.697 127.899 66.297 127.539C67.227 127.449 67.277 128.659 68.547 128.539C71.477 128.269 75.877 127.379 75.537 123.289C75.187 118.969 66.087 125.439 64.547 119.289C62.727 112.019 85.497 91.3486 103.267 95.0586C94.137 103.459 107.697 92.2786 114.007 103.549L113.997 103.559Z" fill="#F9F4DB"/>
<path d="M92.7569 99.0686C93.5269 98.9886 95.6869 100.649 96.0069 101.319C99.8869 109.359 86.2369 99.7786 92.7569 99.0686Z" fill="#29112A"/>
<path d="M76.5269 169.509C79.6869 173.559 79.8169 171.659 85.0169 171.009C84.0369 174.009 80.3669 180.819 80.0169 183.249C79.0769 189.849 82.5169 194.879 81.5169 199.239C81.0869 201.109 74.0669 204.659 75.0269 218.469C73.9369 222.709 70.8469 222.789 67.2869 220.969C57.3169 215.869 62.0369 194.089 51.5469 212.979C46.6269 209.699 46.8869 203.119 48.5469 197.989C52.6269 197.359 58.9269 194.479 60.5369 190.499C60.5769 190.399 61.2769 190.779 61.0369 188.499C60.7169 185.509 54.5669 190.279 58.5369 179.759C61.6269 171.579 70.1369 173.999 72.7769 172.519C73.7769 171.529 74.3569 170.379 75.5269 169.519C75.6669 169.419 76.4069 169.619 76.5269 169.519V169.509Z" fill="#F9F4DB"/>
<path d="M88.017 182.999C86.297 190.519 86.017 191.089 88.517 199.239C81.157 206.099 81.317 219.299 87.017 227.219C82.527 237.589 91.437 244.169 79.027 234.459C78.087 229.799 75.337 222.959 75.027 218.469C74.067 204.649 81.097 201.099 81.517 199.239C82.517 194.879 79.077 189.849 80.017 183.249C80.367 180.819 84.037 174.009 85.017 171.009C85.187 170.499 85.337 170.019 85.517 169.509C90.487 166.679 89.157 180.819 87.017 182.749L88.017 182.999Z" fill="#CFA291"/>
<path d="M75.027 218.469C75.337 222.959 78.077 229.799 79.027 234.459C75.167 231.439 72.037 228.549 69.287 224.469C61.267 228.439 50.727 219.599 50.547 216.229C50.367 212.719 54.857 215.189 51.547 212.979C62.037 194.089 57.307 215.869 67.287 220.969C70.857 222.789 73.937 222.709 75.027 218.469Z" fill="#DDB79F"/>
<path d="M91.0069 154.019C87.6069 158.589 87.3369 164.309 85.5069 169.509C85.3269 170.019 85.1769 170.499 85.0069 171.009C79.8069 171.659 79.6769 173.559 76.5169 169.509C82.7069 164.439 78.7869 164.639 76.5169 166.009C73.3269 162.879 65.9269 166.039 63.5269 163.509C66.4069 160.609 67.8769 158.349 72.2669 160.509C76.7569 154.579 84.1369 153.309 91.0069 154.019Z" fill="#FBFAFB"/>
<path d="M76.527 166.009C75.917 166.379 74.067 168.969 75.527 169.509C74.357 170.369 73.777 171.519 72.777 172.509C70.137 173.999 61.627 171.579 58.537 179.749C54.567 190.279 60.717 185.499 61.037 188.489C56.197 187.279 53.067 191.169 54.047 182.239C55.177 171.899 64.667 171.999 65.037 171.249C67.647 165.929 54.857 172.239 63.537 163.509C65.937 166.039 73.337 162.879 76.527 166.009Z" fill="#F9F4DB"/>
<path d="M88.0168 182.999L87.0168 182.749C89.1568 180.819 90.4868 166.679 85.5168 169.509C87.3368 164.309 87.6068 158.589 91.0168 154.019C99.9868 154.939 92.8868 155.549 90.5168 165.759C88.8868 172.779 90.2868 177.879 90.0168 179.749C89.7268 180.459 88.0568 182.809 88.0168 182.999Z" fill="#DDB79F"/>
<path d="M48.5469 197.989C50.8469 190.889 54.8369 192.309 60.5369 190.499C58.9269 194.479 52.6269 197.369 48.5469 197.989Z" fill="#F9F4DB"/>
<path d="M182.937 286.419C183.007 287.339 183.747 288.499 183.437 290.419C177.907 292.749 176.937 294.149 175.947 300.909C164.147 290.729 159.567 305.199 176.447 309.899C178.587 314.729 182.367 313.239 186.437 312.399C189.377 317.219 184.717 316.919 176.947 318.399C171.947 319.349 164.697 320.299 159.707 319.899C143.897 318.609 152.897 316.859 159.457 312.659C156.21 312.079 152.964 311.495 149.717 310.909C148.817 309.889 156.517 306.769 151.717 305.409C143.167 302.999 130.827 314.699 130.987 308.659C131.027 307.009 149.977 295.889 150.717 294.919C151.777 293.539 149.637 290.089 154.717 287.929C162.857 284.459 168.577 291.369 170.207 290.929C174.797 289.679 167.907 284.119 167.957 283.689C168.147 282.219 179.247 278.179 182.947 286.439L182.937 286.419Z" fill="#5AC25F"/>
<path d="M302.347 167.009C303.008 169.404 302 172.5 298.837 174.038C294.5 174.5 291.937 179.2 296.347 177.999C303.087 180.649 301.667 184.039 303.337 187.239C303.717 187.969 305.167 188.249 305.337 188.489C302.937 191.399 300.247 190.589 297.097 189.489C295.687 190.089 299.927 207.209 285.107 202.979C283.857 203.129 280.827 209.749 276.617 207.479C269.747 203.769 286.757 191.339 270.867 189.489C270.477 185.509 268.567 181.759 266.367 178.499C271.367 173.939 268.067 169.459 262.867 167.009C262.847 166.909 262.537 165.779 262.367 165.009C264.757 149.969 277.417 152.659 269.357 145.029C272.077 139.069 272.837 133.519 272.357 127.039C281.177 127.249 275.077 131.149 287.097 142.529C289.957 145.239 293.117 144.049 298.837 154.269C299.237 154.979 300.537 155.929 301.337 156.269C299.837 158.529 302.867 160.969 302.337 167.009H302.347Z" fill="#F9F4DB"/>
<path d="M306.337 191.489C306.037 193.179 304.207 199.799 301.837 198.229C296.777 188.609 305.347 202.609 294.097 208.969C283.167 215.149 286.497 207.629 284.607 207.469C282.957 207.329 284.947 214.079 274.617 212.469C262.727 210.609 272.057 201.549 270.867 189.489C286.747 191.329 269.747 203.769 276.617 207.479C280.837 209.759 283.867 203.129 285.107 202.979C299.937 207.209 295.687 190.089 297.097 189.489C300.247 190.589 302.947 191.399 305.337 188.489C306.267 189.789 305.317 190.749 306.337 191.489Z" fill="#DDB79F"/>
<path d="M262.377 165.009C261.937 163.049 258.287 156.739 258.377 156.269C263.457 153.849 267.057 150.099 269.367 145.029C277.417 152.669 264.767 149.969 262.377 165.009Z" fill="#EECEB6"/>
<path d="M306.337 191.489C305.317 190.749 306.267 189.789 305.337 188.489C305.167 188.249 303.717 187.969 303.337 187.239C301.667 184.039 303.087 180.649 296.347 177.999C297.387 177.749 302.167 174.739 305.337 180.249C307.177 183.439 306.957 187.979 306.337 191.489Z" fill="#FBFAFB"/>
<path d="M266.377 178.499C265.947 177.859 263.277 176.029 262.377 175.249C262.967 173.249 263.187 168.859 262.877 167.009C268.077 169.459 271.377 173.939 266.377 178.499Z" fill="#EECEB6"/>
<path d="M295.347 178.499C293.767 178.839 285.937 182.429 285.357 171.509C291.477 170.779 291.077 178.079 295.347 172.009C297.107 171.169 301.507 176.529 302.337 167.009C302.867 160.969 299.837 158.529 301.337 156.269C300.537 155.929 299.237 154.979 298.837 154.269C293.107 144.049 289.957 145.239 287.097 142.529C275.077 131.149 281.177 127.249 272.357 127.039C272.137 124.139 268.797 122.229 274.107 120.549C283.297 117.639 279.047 129.399 287.597 124.549C310.237 140.439 297.587 145.819 297.837 147.279C297.877 147.519 300.467 148.829 301.337 150.779C301.857 151.959 301.587 155.399 301.837 155.779C302.297 156.459 307.827 154.169 306.837 164.769C305.527 178.729 294.737 171.259 295.347 178.509V178.499Z" fill="#FBFAFB"/>
<path d="M106.997 338.879C103.487 342.219 85.2969 342.869 91.5069 352.119C94.6869 356.849 98.967 351.689 99.747 351.369C106.187 348.699 100.187 352.389 99.997 353.119C98.617 358.339 109.367 358.399 112.487 356.369C107.917 362.909 114.317 362.079 117.987 358.869C118.327 359.209 119.037 359.629 119.487 359.869C122.917 361.649 126.017 360.709 129.477 359.869C128.187 365.719 120.787 361.539 122.487 364.869C114.997 365.119 114.857 370.829 113.247 370.869C107.287 362.939 104.727 366.539 101.507 367.369C100.677 367.579 100.647 368.579 99.2569 368.369C97.9069 368.169 81.9169 358.559 84.0169 347.639C84.4969 345.169 93.0969 336.659 95.5069 334.899C97.9069 333.139 100.437 332.309 102.997 330.899C111.777 333.279 90.7869 337.179 93.0069 342.139C94.4069 345.279 102.827 337.469 106.997 338.889V338.879Z" fill="#0FC090"/>
<path d="M112.997 353.869C113.307 353.919 113.727 353.799 113.997 353.869C113.647 354.789 113.057 355.569 112.497 356.369C109.377 358.409 98.6269 358.339 100.007 353.119C100.197 352.389 106.197 348.699 99.7569 351.369C98.9769 351.689 94.6969 356.849 91.5169 352.119C85.2969 342.869 103.497 342.219 107.007 338.879C109.587 339.769 110.417 342.949 109.757 345.369C106.497 343.489 91.8669 344.559 92.5169 349.619C93.2569 355.319 99.8269 347.449 107.257 348.869C110.957 349.579 114.327 353.219 103.757 351.369C102.057 356.939 106.967 352.959 112.997 353.869Z" fill="#0C836C"/>
<path d="M96.507 332.879L95.507 334.879C93.097 336.639 84.487 345.149 84.017 347.619C81.907 358.539 97.897 368.149 99.257 368.349C100.647 368.559 100.677 367.559 101.507 367.349C102.167 369.449 103.787 365.559 107.997 369.349C100.867 367.039 100.347 371.089 98.007 375.839C97.987 375.869 97.847 375.639 97.507 376.339C95.217 376.209 96.607 374.929 96.507 374.839C99.707 371.089 92.067 367.709 85.517 359.349C86.747 357.649 81.747 354.269 83.017 347.609C83.597 344.539 93.577 334.509 96.507 332.869V332.879Z" fill="#1D181E"/>
<path d="M113.997 335.879C114.357 335.709 114.617 335.499 114.997 335.379C116.347 338.489 120.247 333.349 122.987 338.379C114.687 341.409 119.537 336.619 116.737 336.879C115.257 337.019 114.797 344.209 114.237 344.369C112.357 339.569 108.427 336.879 111.487 335.379C113.417 339.589 113.787 335.969 113.987 335.879H113.997Z" fill="#0A8595"/>
<path d="M122.987 338.379C120.237 333.349 116.347 338.499 114.997 335.379C119.437 334.009 124.357 333.709 127.987 337.129L123.737 344.369L122.987 343.619C124.657 341.739 123.997 340.219 122.987 338.369V338.379Z" fill="#0F97AA"/>
<path d="M122.487 364.859C120.787 361.539 128.187 365.719 129.477 359.859C130.357 358.639 132.667 362.999 131.977 365.109C130.857 368.509 127.627 364.689 122.487 364.859Z" fill="#0CC7B6"/>
<path d="M117.487 350.869C119.627 354.819 121.707 352.789 121.987 352.869C130.897 355.299 125.177 358.879 120.487 356.369C118.647 355.379 117.767 353.369 116.487 351.869C116.597 351.839 115.887 350.939 117.487 350.869Z" fill="#04936E"/>
<path d="M116.487 351.869C117.767 353.369 118.647 355.379 120.487 356.369L119.487 359.869C119.037 359.639 118.327 359.209 117.987 358.869C117.747 358.639 116.737 354.599 113.987 353.869C113.717 353.799 113.307 353.919 112.987 353.869C112.467 351.639 115.147 352.249 116.487 351.869Z" fill="#102934"/>
<path d="M102.997 330.879C100.437 332.289 97.9071 333.119 95.5071 334.879L96.5071 332.879C98.5871 331.719 100.297 330.149 102.997 330.879Z" fill="#C0F3E6"/>
<path d="M129.227 346.369C130.187 346.639 130.237 349.439 129.727 349.869C127.667 351.569 126.487 345.599 129.227 346.369Z" fill="#312F4E"/>
<path d="M121.987 352.869C121.717 352.799 119.627 354.819 117.487 350.869C118.457 350.829 121.857 351.559 121.987 352.869Z" fill="#5AF5E6"/>
<path d="M113.997 335.879C113.797 335.969 113.427 339.589 111.497 335.379C112.687 334.799 113.387 334.389 113.997 335.879Z" fill="#A4FAFF"/>
<path d="M117.987 358.859C114.327 362.069 107.927 362.909 112.487 356.359C113.047 355.559 113.627 354.779 113.987 353.859C116.737 354.579 117.747 358.619 117.987 358.859Z" fill="#0C836C"/>
<path d="M175.947 300.909C175.467 304.149 175.077 306.809 176.447 309.899C159.567 305.199 164.147 290.729 175.947 300.909Z" fill="#217B48"/>
<path d="M185.437 278.919C185.457 279.919 185.447 280.919 185.437 281.919C185.437 282.579 185.477 283.259 185.437 283.919C185.327 285.819 185.517 287.759 185.437 289.669C184.757 290.779 183.817 290.259 183.437 290.419C183.747 288.499 183.007 287.339 182.937 286.419C182.727 283.549 182.807 278.899 182.937 275.929C183.577 261.549 185.157 266.989 185.437 278.929V278.919Z" fill="#A1D783"/>
<path d="M185.437 281.919C185.447 280.919 185.457 279.919 185.437 278.919V281.919Z" fill="#1F301D"/>
<path d="M187.437 282.919C187.387 283.289 185.607 286.279 185.937 290.159C192.617 291.359 196.047 305.259 192.927 309.889C191.647 311.799 188.527 311.949 186.437 312.389C182.367 313.229 178.587 314.719 176.447 309.889C175.077 306.799 175.467 304.139 175.947 300.899C176.947 294.129 177.907 292.739 183.437 290.409C183.817 290.249 184.757 290.769 185.437 289.659C185.517 287.749 185.327 285.819 185.437 283.909L187.437 282.909V282.919Z" fill="#1A1C28"/>
<path d="M187.687 297.909C191.687 297.149 191.677 310.219 186.187 308.899C182.097 307.919 184.367 298.539 187.687 297.909Z" fill="#FBFAFB"/>
<path d="M184.687 293.409C185.337 293.369 188.317 294.569 187.937 295.659C180.437 298.109 182.757 301.489 180.197 303.399C177.637 300.719 181.807 293.589 184.697 293.409H184.687Z" fill="#246644"/>
<path d="M108.997 376.849C108.937 377.699 106.647 378.259 105.997 378.349C102.677 378.809 104.367 377.909 103.997 377.849C106.417 373.909 108.377 376.749 108.997 376.849Z" fill="#1B060F"/>
<path d="M230.897 389.339C229.997 391.299 226.947 391.429 224.897 391.839C221.607 392.499 219.117 390.639 217.907 394.839C216.417 399.999 222.897 400.539 222.907 402.079C222.907 402.519 219.587 406.059 215.167 405.329C210.937 404.629 207.577 394.849 193.187 397.339C192.457 397.469 180.907 404.329 184.947 393.589C187.897 385.739 198.947 391.969 204.177 392.339C209.187 392.689 225.477 390.669 230.907 389.339H230.897Z" fill="#AB1156"/>
<path d="M190.437 359.359C191.167 370.629 194.547 378.389 206.927 378.339C206.987 378.549 207.377 379.309 207.427 379.339C204.487 382.529 211.987 385.969 198.687 383.839C195.007 383.249 183.327 378.599 182.447 374.599C181.237 369.079 190.677 368.369 185.197 367.359C184.257 367.189 182.637 367.769 181.947 368.359L180.947 367.859C181.337 367.369 183.737 363.419 183.947 362.859C185.717 363.079 187.347 358.889 188.197 358.859C189.407 358.829 189.027 361.479 190.447 359.359H190.437Z" fill="#D9B1BC"/>
<path d="M190.437 359.359C189.017 361.479 189.397 358.829 188.187 358.859C187.337 358.879 185.707 363.079 183.937 362.859C186.937 354.679 176.927 365.139 178.437 369.109C179.187 371.079 180.117 368.899 180.937 367.859L181.937 368.359C178.737 371.119 180.347 376.799 185.437 379.599C173.867 377.009 172.667 361.919 178.197 353.369C176.027 373.489 180.817 344.189 185.687 342.879C186.597 342.639 191.807 343.839 191.937 344.129C192.237 344.839 189.817 349.729 190.437 359.369V359.359Z" fill="#AB819D"/>
<path d="M253.387 363.859C254.557 366.339 253.117 368.989 251.887 370.849C234.087 379.829 244.117 364.029 236.897 369.349C235.467 370.399 236.937 371.769 232.897 371.849C230.137 362.429 241.627 366.099 246.637 362.859C251.817 359.509 246.527 354.689 251.637 356.859C257.777 359.479 245.897 370.389 253.387 363.849V363.859Z" fill="#FBFAFB"/>
<path d="M228.407 377.349C234.107 377.529 239.457 376.039 245.147 376.349C245.657 375.859 246.787 374.899 246.897 374.849C248.467 374.099 250.887 372.389 251.897 370.849C253.127 368.979 254.567 366.339 253.397 363.859C256.807 355.439 259.627 366.259 251.897 374.599C246.017 380.949 230.547 385.089 228.417 377.349H228.407Z" fill="#D1A0B6"/>
<path d="M211.417 381.839C215.467 382.129 219.397 381.089 223.407 380.839C224.827 380.749 224.787 379.589 226.157 379.839C228.607 382.819 234.397 381.189 234.397 382.589C225.947 386.319 219.207 386.919 211.417 381.839Z" fill="#B47491"/>
<path d="M222.407 375.349C225.147 376.149 221.967 377.459 222.407 380.099L223.407 379.849V380.849C219.397 381.099 215.467 382.139 211.417 381.849C209.867 380.839 209.117 380.309 207.417 379.349C207.367 379.319 206.977 378.559 206.917 378.349C212.087 378.329 217.377 376.379 222.407 375.349Z" fill="#F9F4DB"/>
<path d="M246.887 374.849C246.787 374.899 245.647 375.859 245.137 376.349C239.447 376.039 234.097 377.529 228.397 377.349C228.017 377.339 224.037 373.839 223.397 379.849L222.397 380.099C221.957 377.459 225.137 376.159 222.397 375.349C225.477 374.719 228.567 374.969 231.637 374.349L232.887 371.849C236.927 371.769 235.457 370.409 236.887 369.349C236.457 375.789 241.487 376.079 246.877 374.849H246.887Z" fill="#F6E7E6"/>
<path d="M222.907 394.329C223.447 393.339 224.417 392.839 224.907 391.829C226.957 391.419 230.007 391.289 230.907 389.329C232.097 389.039 233.187 388.599 234.157 387.829L234.407 388.579C231.527 390.979 230.097 396.189 229.657 396.319C229.307 396.429 226.547 393.609 222.917 394.319L222.907 394.329Z" fill="#D1A0B6"/>
<path d="M224.907 391.839C224.417 392.839 223.447 393.349 222.907 394.339C221.067 397.749 223.497 402.059 218.907 397.089C218.797 396.969 217.837 395.299 217.907 394.839C219.127 390.639 221.617 392.499 224.897 391.839H224.907Z" fill="#FACCBC"/>
<path d="M245.887 392.329C242.347 395.239 241.837 398.269 242.387 402.819C240.167 404.079 241.237 405.529 241.887 407.319C238.837 404.009 241.727 409.499 237.137 408.819C232.597 408.139 233.877 398.919 233.887 395.829C242.177 376.169 258.477 390.089 255.617 391.329C251.387 389.359 249.107 389.669 245.877 392.329H245.887Z" fill="#AB1156"/>
<path d="M241.887 407.319C243.417 411.529 249.157 413.599 253.127 414.809C254.167 415.129 257.817 414.249 255.627 415.809C255.307 416.039 248.527 418.269 248.137 418.309C239.227 419.159 228.377 408.919 233.897 395.829C233.897 398.919 232.597 408.139 237.147 408.819C241.727 409.499 238.847 404.019 241.897 407.319H241.887Z" fill="#AB1156"/>
<path d="M245.387 408.819C243.747 399.949 242.447 399.459 247.887 391.329C253.107 390.619 259.157 394.799 259.877 400.069C260.467 404.379 258.477 413.349 252.887 411.559C263.087 409.229 254.047 386.449 247.387 395.569C242.127 402.779 252.927 416.099 245.387 408.809V408.819Z" fill="#AB819D"/>
<path d="M245.387 408.819C243.667 407.159 242.697 405.359 242.387 402.819C241.837 398.269 242.347 395.239 245.887 392.329C246.497 392.169 247.377 391.399 247.887 391.329C242.457 399.449 243.747 399.949 245.387 408.819Z" fill="#E08EA6"/>
<path d="M252.137 399.829C254.277 399.569 256.107 406.989 253.137 407.319C250.787 407.579 249.307 400.169 252.137 399.829Z" fill="#D9B1BC"/>
<path d="M251.387 382.839C252.997 381.559 257.807 381.709 259.377 378.339C264.697 380.109 255.277 386.129 251.387 382.839Z" fill="#66A855"/>
<path d="M259.377 378.349C257.807 381.709 252.997 381.559 251.387 382.849C249.507 381.259 256.297 377.329 259.377 378.349Z" fill="#A1D783"/>
<path d="M167.447 389.839C164.137 397.329 168.237 407.659 171.447 403.329C172.787 405.549 175.307 407.589 177.937 407.829C175.327 409.669 179.787 408.579 177.937 412.829C154.707 417.469 151.467 378.879 175.687 381.349C188.797 388.929 172.007 379.519 167.447 389.839Z" fill="#AB1156"/>
<path d="M171.447 403.329C168.237 407.659 164.137 397.329 167.447 389.839C181.687 379.369 170.027 390.039 169.447 393.589C168.967 396.529 169.877 400.749 171.447 403.329Z" fill="#9F3965"/>
<path d="M177.947 412.819C179.797 408.579 175.337 409.659 177.947 407.819C184.697 408.439 188.677 397.709 188.937 403.569C189.037 405.819 184.097 411.589 177.947 412.809V412.819Z" fill="#820C48"/>
<path d="M178.197 388.339C186.907 387.839 182.897 397.769 181.697 402.829C179.327 398.589 186.607 391.039 178.197 388.339Z" fill="#B47491"/>
<path d="M177.697 394.329C181.047 393.909 181.547 396.559 180.197 396.829C179.767 396.919 177.607 393.059 174.197 400.829C173.017 398.449 175.497 394.609 177.697 394.339V394.329Z" fill="#CE87A9"/>
<path d="M227.907 367.849C216.927 369.929 207.827 373.109 198.177 366.349C197.987 366.219 197.957 367.949 195.427 363.849C195.467 363.809 196.287 363.409 196.427 363.349C196.837 363.179 200.127 363.669 204.667 360.349C204.597 367.639 205.657 367.199 209.917 362.849C210.797 366.079 213.287 361.329 216.907 361.349C217.447 365.999 222.947 367.669 224.897 365.849C225.437 365.349 225.747 358.819 235.387 356.859C236.937 356.539 245.267 355.389 244.377 359.109C243.687 361.999 228.817 358.799 227.887 367.849H227.907Z" fill="#0FC090"/>
<path d="M227.907 367.849C227.747 369.439 229.207 371.269 228.907 372.099C217.367 374.439 200.197 381.189 194.937 366.849C195.027 365.729 194.557 364.859 195.437 363.849C197.967 367.949 197.997 366.219 198.187 366.349C207.837 373.109 216.937 369.919 227.917 367.849H227.907Z" fill="#02AD88"/>
<path d="M232.397 353.869C227.627 356.049 218.007 360.419 224.907 365.859C222.957 367.689 217.447 366.009 216.917 361.359C216.537 358.059 221.177 356.149 221.917 352.869C225.527 352.109 229.077 352.079 232.407 353.869H232.397Z" fill="#07736A"/>
<path d="M235.397 356.859C225.757 358.819 225.437 365.349 224.907 365.849C218.007 360.409 227.637 356.039 232.397 353.859C232.677 354.009 235.257 356.199 235.397 356.859Z" fill="#102934"/>
<path d="M216.907 361.359C213.287 361.339 210.797 366.089 209.917 362.859C213.267 359.429 214.957 354.319 221.907 352.869C221.167 356.149 216.527 358.069 216.907 361.359Z" fill="#02AD88"/>
<path d="M197.427 356.359L200.427 350.859C201.347 350.719 200.317 349.449 202.177 350.359L207.927 355.109C204.517 356.399 200.947 357.929 197.437 356.359H197.427Z" fill="#312F4E"/>
<path d="M213.667 342.869C218.747 341.799 223.057 346.809 216.167 348.369C214.337 348.169 218.767 343.679 214.667 343.869C210.857 344.049 210.337 352.999 207.177 351.859C203.477 350.529 208.547 349.529 208.677 349.359C210.117 347.389 210.247 343.579 213.677 342.869H213.667Z" fill="#39A4BF"/>
<path d="M196.427 363.359C196.287 363.419 195.467 363.819 195.427 363.859C194.547 364.859 195.017 365.739 194.927 366.859C190.677 355.299 192.617 340.209 196.427 344.629C196.687 344.929 194.337 348.239 193.927 352.119C193.637 354.899 193.227 363.369 196.427 363.359Z" fill="#1C8F96"/>
<path d="M200.427 350.869L197.427 356.369C194.287 354.969 197.617 351.179 199.177 350.369C200.197 349.849 200.357 350.879 200.427 350.869Z" fill="#FBFAFB"/>
<path d="M198.177 344.869C198.517 344.769 199.757 344.769 199.927 345.119C194.037 349.319 197.147 345.179 198.177 344.869Z" fill="#A09DB4"/>
<path d="M183.937 362.859C183.737 363.419 181.327 367.369 180.937 367.859C180.117 368.899 179.187 371.079 178.437 369.109C176.927 365.139 186.937 354.689 183.937 362.859Z" fill="#29112A"/>
<path d="M251.887 370.849C250.877 372.379 248.467 374.089 246.887 374.849C241.497 376.079 236.457 375.799 236.897 369.349C244.117 364.029 234.087 379.829 251.887 370.849Z" fill="#29112A"/>
<path d="M171.947 263.939C170.127 273.819 157.687 277.979 153.207 276.429C150.917 275.639 152.817 273.699 151.207 273.429C150.337 273.279 141.537 280.539 135.717 271.929C132.037 274.419 124.667 268.669 122.977 265.679C119.547 259.629 123.777 257.509 121.727 255.939C118.137 253.169 123.537 262.129 110.737 259.439C98.3271 256.829 84.4071 234.939 96.4971 226.719C90.7471 224.499 87.5871 218.649 88.0071 212.479C95.0471 219.779 98.7671 225.309 109.487 227.219C95.0671 227.609 96.6971 241.259 106.737 247.449C118.687 254.819 119.977 246.419 122.227 246.949C123.827 247.329 122.657 252.079 129.217 252.449C141.247 267.939 153.937 266.129 171.937 263.939H171.947Z" fill="#DDB79F"/>
<path d="M247.387 248.949C245.337 256.499 237.577 264.809 229.647 266.439L230.647 258.949C226.177 272.949 200.687 280.449 199.667 261.949C198.607 273.479 187.967 263.079 187.427 260.199C186.747 256.559 189.647 254.409 188.427 252.959C193.557 251.809 199.097 251.919 204.167 249.959C199.907 255.329 202.117 261.079 208.667 259.449C209.517 259.239 218.827 248.469 220.407 255.699C220.587 256.509 216.337 266.799 225.157 260.449C226.607 259.399 227.837 256.739 229.657 255.449L247.397 248.959L247.387 248.949Z" fill="#DDB79F"/>
<path d="M253.887 158.019C256.307 166.009 253.597 160.319 252.887 161.769C252.067 163.449 254.357 167.459 254.387 167.769C255.347 178.709 237.617 147.109 223.157 146.539C218.907 146.369 214.717 148.899 218.407 153.029H215.407C215.747 152.399 216.037 151.879 216.407 151.279C208.637 142.829 189.827 152.259 198.417 142.539C199.257 149.469 200.617 141.369 211.157 140.039C223.717 138.459 247.207 146.789 253.877 158.029L253.887 158.019Z" fill="#FBFAFB"/>
<path d="M198.427 142.529C197.927 138.369 199.757 134.019 196.927 125.789C196.497 124.549 190.007 112.349 189.437 111.799C185.147 107.689 186.047 112.769 185.937 113.049C183.967 111.749 181.447 116.079 184.437 116.049C184.347 116.169 184.777 117.519 183.687 118.049C180.557 119.589 174.937 112.149 173.447 112.049V110.049C179.667 110.759 172.717 103.429 171.447 108.549C170.077 106.499 173.537 106.399 170.697 105.049C166.887 103.979 164.137 107.039 159.957 104.549C168.357 100.669 174.117 99.5887 183.187 103.049C190.617 105.879 200.857 116.119 199.927 124.779C211.727 137.149 200.157 140.559 198.427 142.519V142.529Z" fill="#FBFAFB"/>
<path d="M153.457 148.029C153.367 147.649 153.637 147.159 152.457 146.279L153.207 145.529C162.627 149.709 158.997 159.029 156.207 160.019C153.137 161.099 149.487 151.709 144.717 154.019C144.467 151.969 129.617 149.969 128.227 150.019C110.657 150.669 99.4871 165.039 97.7471 165.009C97.3771 165.009 97.7071 163.919 96.9971 164.009C103.577 146.029 128.577 143.339 144.707 147.519C152.727 149.599 155.137 154.909 153.447 148.019L153.457 148.029Z" fill="#FBFAFB"/>
<path d="M255.877 179.499C268.987 178.759 268.757 202.579 259.877 202.729C259.337 203.999 268.767 206.859 259.377 223.459C257.647 219.269 261.887 213.019 258.877 202.729L260.877 200.729C264.377 179.629 247.507 179.969 255.877 179.499Z" fill="#FBFAFB"/>
<path d="M147.967 96.0686C145.277 101.299 142.247 96.0486 141.967 100.569C139.507 98.0786 137.767 100.109 140.467 104.069C137.337 103.499 140.257 97.6686 131.227 101.569C126.217 103.739 122.647 110.499 118.987 114.309C124.267 120.149 124.107 115.899 125.477 115.059C126.677 120.879 116.867 116.789 116.487 114.309C115.197 105.889 133.547 92.1586 148.207 94.5786C149.717 95.6286 148.027 95.9386 147.957 96.0786L147.967 96.0686Z" fill="#FBFAFB"/>
<path d="M183.937 256.939C180.987 262.709 179.657 267.239 172.447 269.679C172.087 267.999 173.787 266.049 172.447 264.429C177.287 263.829 179.967 259.189 183.937 256.939Z" fill="#CFA291"/>
<path d="M240.397 233.459C245.827 237.009 250.897 236.059 247.387 248.949L229.647 255.439C227.827 256.719 226.607 259.389 225.147 260.439C216.337 266.789 220.577 256.499 220.397 255.689C218.817 248.459 209.507 259.219 208.657 259.439C202.117 261.069 199.897 255.309 204.157 249.949C199.087 251.909 193.557 251.789 188.417 252.949C187.747 253.099 186.817 252.799 185.667 253.449C183.637 255.059 184.007 256.769 183.917 256.949C179.947 259.199 177.267 263.839 172.427 264.439C172.397 264.409 172.537 263.879 171.927 263.939C153.927 266.129 141.237 267.939 129.207 252.449C122.647 252.079 123.807 247.329 122.217 246.949C119.967 246.419 118.677 254.819 106.727 247.449C96.6871 241.259 95.0571 227.599 109.477 227.219C98.7571 225.309 95.0371 219.789 87.9971 212.479C88.3371 207.519 90.9471 203.239 94.9871 200.489C95.0671 200.429 96.3471 201.269 96.9871 200.239C97.1971 199.899 97.6771 193.519 101.737 195.489C103.127 196.169 102.167 198.719 102.487 199.239C102.727 199.639 107.457 198.979 105.487 206.229C107.487 206.799 108.517 213.229 112.477 218.719C118.427 226.949 122.927 228.059 132.707 227.959C133.077 227.959 132.837 228.959 133.207 228.959L135.207 226.959C136.967 229.479 153.747 219.169 148.447 217.719C148.767 209.079 159.677 233.189 161.437 236.209C164.747 237.989 168.217 241.219 168.677 241.459C170.417 242.339 179.487 244.539 181.167 244.459C190.497 243.989 210.277 232.209 206.897 226.219C208.917 221.919 212.447 226.099 216.137 226.469C226.417 227.499 234.507 224.299 235.617 224.969C236.747 225.649 233.607 227.819 238.367 229.219C237.927 232.709 238.297 232.109 240.367 233.469L240.397 233.459Z" fill="#F9F4DB"/>
<path d="M142.717 258.439C144.087 257.799 147.307 260.329 145.217 261.939C142.857 263.759 140.497 259.479 142.717 258.439Z" fill="#1D181E"/>
<path d="M225.657 249.449C228.787 248.379 228.747 252.989 226.657 253.449C224.327 253.959 223.977 250.029 225.657 249.449Z" fill="#13112D"/>
<path d="M159.957 104.559C164.137 107.049 166.887 103.989 170.697 105.059C173.537 106.399 170.077 106.509 171.447 108.559C171.517 108.659 173.317 110.039 173.447 110.059V112.059C167.247 111.659 174.517 118.229 174.947 120.799C176.437 129.779 170.837 131.609 163.207 130.039C156.817 138.589 146.227 129.679 141.727 133.539C139.687 135.289 141.177 138.049 139.477 141.279C141.447 142.649 145.447 142.009 145.477 144.029C133.277 139.959 121.427 140.839 109.507 145.529C111.877 141.869 101.577 138.789 97.0171 137.039C98.1571 131.799 104.227 124.129 109.257 122.049C123.637 116.119 132.427 130.249 127.497 119.799C127.117 117.179 132.687 110.679 125.497 115.049C124.117 115.889 124.277 120.139 119.007 114.299C122.667 110.489 126.237 103.729 131.247 101.559C140.277 97.6586 137.357 103.489 140.487 104.059C144.327 104.759 141.827 103.169 141.987 100.559C142.257 96.0386 145.287 101.299 147.987 96.0586C145.267 102.579 148.407 109.949 154.237 108.549C154.577 108.469 157.207 105.829 159.987 104.549L159.957 104.559Z" fill="#F9F4DB"/>
<path d="M164.707 116.549C171.397 115.269 175.127 129.029 166.707 122.049C160.867 129.099 159.537 117.549 164.707 116.549Z" fill="#29112A"/>
<path d="M141.217 118.549C143.727 118.049 148.857 118.749 148.457 122.299C141.847 120.129 136.147 128.939 137.467 121.799C137.667 120.709 140.277 118.739 141.217 118.549Z" fill="#29112A"/>
<path d="M106.747 136.039C110.287 134.979 112.777 137.579 109.247 138.539C105.207 139.629 103.237 137.089 106.747 136.039Z" fill="#1B0B1D"/>
<path d="M173.447 110.059C173.327 110.049 171.517 108.669 171.447 108.559C172.717 103.439 179.657 110.769 173.447 110.059Z" fill="#1D181E"/>
<path d="M198.427 142.529C189.837 152.249 208.647 142.829 216.417 151.269C217 146.5 221.084 146.445 223.167 146.529C237.617 147.109 255.357 178.699 254.397 167.759C254.367 167.449 252.077 163.449 252.897 161.759C253.607 160.319 256.307 165.999 253.897 158.009C256.837 162.959 258.777 169.059 257.397 174.749C257.007 176.339 254.407 177.759 255.897 179.499C247.527 179.969 264.397 179.639 260.897 200.729L258.897 202.729C261.907 213.019 257.667 219.279 259.397 223.459C250.357 239.439 242.057 232.439 240.657 232.449C240.327 232.449 240.387 233.069 240.407 233.449C238.337 232.099 237.967 232.699 238.407 229.199C233.647 227.799 236.787 225.629 235.657 224.949C234.547 224.279 226.457 227.479 216.177 226.449C212.487 226.079 208.957 221.899 206.937 226.199C210.317 232.179 190.537 243.959 181.207 244.439C179.527 244.529 170.457 242.319 168.717 241.439C168.257 241.209 164.787 237.969 161.477 236.189C159.717 233.179 148.807 209.069 148.487 217.699C153.787 219.149 137.007 229.459 135.247 226.939L133.247 228.939C132.877 228.939 133.117 227.939 132.747 227.939C122.967 228.039 118.467 226.929 112.517 218.699C108.547 213.209 107.527 206.779 105.527 206.209C107.497 198.959 102.767 199.609 102.527 199.219C102.207 198.699 103.167 196.149 101.777 195.469C97.7171 193.489 97.2371 199.879 97.0271 200.219C96.3971 201.249 95.1071 200.409 95.0271 200.469C96.6271 198.309 90.3471 197.579 92.0271 188.729C93.2571 182.229 101.727 183.759 99.2671 180.489C92.5771 181.489 95.3871 168.459 97.0171 163.999C97.7271 163.899 97.3971 164.989 97.7671 164.999C99.5071 165.029 110.667 150.659 128.247 150.009C129.637 149.959 144.487 151.959 144.737 154.009C149.507 151.689 153.167 161.089 156.227 160.009C159.017 159.029 162.647 149.699 153.227 145.519L152.477 146.269C153.657 147.149 153.387 147.639 153.477 148.019C151.137 145.909 148.397 144.999 145.487 144.019C145.467 141.999 141.457 142.639 139.487 141.269C141.177 138.029 139.697 135.269 141.737 133.529C146.237 129.669 156.837 138.579 163.217 130.029C170.847 131.599 176.447 129.769 174.957 120.789C174.527 118.219 167.257 111.649 173.457 112.049C174.947 112.149 180.567 119.579 183.697 118.049C184.787 117.519 184.357 116.169 184.447 116.049C186.337 113.599 185.757 113.559 185.947 113.049C186.047 112.769 185.157 107.689 189.447 111.799C190.017 112.349 196.517 124.549 196.937 125.789C199.767 134.009 197.937 138.359 198.437 142.529H198.427Z" fill="#F9F4DB"/>
<path d="M230.897 167.009C229.697 168.559 228.907 169.499 228.397 171.509C219.997 168.329 211.107 172.429 206.417 179.749C199.387 190.719 202.787 200.329 202.917 206.479C199.317 207.599 195.667 208.479 191.927 208.979C191.417 207.489 195.557 208.089 199.417 206.729C198.547 202.299 197.897 191.909 198.917 187.749C201.067 178.999 208.567 173.949 211.407 166.019C214.137 169.399 219.387 160.629 230.887 167.019L230.897 167.009Z" fill="#F9F4DB"/>
<path d="M139.977 163.019C139.707 169.059 134.857 164.259 132.237 164.019C122.837 163.139 119.657 165.869 118.997 166.019C109.967 168.049 118.917 152.509 133.237 156.529C136.177 157.359 138.767 160.249 139.977 163.019Z" fill="#29112A"/>
<path d="M230.897 167.009C219.397 160.619 214.147 169.389 211.417 166.009C211.487 165.799 210.627 165.199 210.917 163.759C218.587 149.589 236.867 159.669 232.897 166.259C232.217 167.389 230.967 166.929 230.897 167.009Z" fill="#29112A"/>
<path d="M234.897 217.469C237.107 227.759 214.307 226.729 208.667 221.969C204.077 218.099 207.217 217.679 206.917 214.979C212.877 222.869 227.447 223.809 234.897 217.479V217.469Z" fill="#F9F4DB"/>
<path d="M137.977 172.009C131.097 168.479 125.077 168.629 118.497 173.009C120.327 170.509 121.907 168.659 118.997 166.019C119.657 165.869 122.837 163.139 132.237 164.019C134.857 164.259 139.707 169.059 139.977 163.019C144.367 173.079 132.607 166.699 137.977 172.009Z" fill="#FBFAFB"/>
<path d="M178.687 134.039C182.887 133.279 187.037 140.179 183.687 141.029C182.437 141.349 180.567 139.139 180.187 139.029C179.177 138.739 174.707 140.599 175.437 136.779C175.507 136.429 178.207 134.119 178.687 134.029V134.039Z" fill="#1B0B1D"/>
<path d="M179.187 199.989C182.277 199.049 182.667 203.699 180.187 203.989C178.167 204.219 177.027 200.649 179.187 199.989Z" fill="#1B060F"/>
<path d="M137.977 172.009C158.257 182.389 154.497 220.849 134.727 223.469C117.357 225.769 107.097 207.649 108.497 192.239C109.567 180.409 116.347 175.939 118.487 173.009C125.077 168.629 131.087 168.479 137.967 172.009H137.977Z" fill="#29112A"/>
<path d="M133.227 176.509C142.157 174.399 142.447 187.499 134.727 187.499C128.057 187.499 128.417 177.649 133.227 176.509Z" fill="#FBFAFB"/>
<path d="M129.227 213.479C147.227 211.429 141.127 220.659 128.227 218.979C119.917 217.889 122.207 214.279 129.227 213.479Z" fill="#FBFAFB"/>
<path d="M228.407 171.509C240.917 176.239 248.927 205.549 234.897 217.469C227.447 223.799 212.877 222.859 206.917 214.969C205.667 213.319 203.357 206.639 202.917 206.479C202.787 200.329 199.387 190.719 206.417 179.749C211.107 172.429 219.997 168.329 228.397 171.509H228.407Z" fill="#29112A"/>
<path d="M224.157 177.499C233.747 175.279 231.397 190.119 222.657 187.989C217.797 186.809 220.007 178.459 224.157 177.499Z" fill="#FBFAFB"/>
<path d="M214.167 212.979C214.877 212.669 228.917 212.739 229.657 212.979C234.047 214.429 226.417 218.699 218.667 217.479C215.947 217.049 211.367 214.209 214.167 212.979Z" fill="#FBFAFB"/>
<path d="M202.927 206.479C203.107 215.169 203.997 221.589 199.427 229.709C190.717 245.189 172.067 241.759 162.957 228.709C158.897 222.889 157.417 215.809 156.957 215.219C156.197 214.229 150.547 213.429 154.207 209.969C166.727 212.069 179.467 210.639 191.927 208.969C195.667 208.469 199.317 207.599 202.917 206.469L202.927 206.479Z" fill="#29112A"/>
<path d="M193.427 226.969C190.697 224.659 190.247 226.009 189.927 225.969C184.047 225.229 178.767 227.029 172.937 225.969C179.377 217.209 192.647 219.359 193.417 226.969H193.427Z" fill="#820C48"/>
<path d="M189.937 225.969C186.697 227.149 179.477 229.389 179.947 232.959C175.927 232.699 173.807 231.779 170.957 228.959C171.447 226.579 172.207 226.979 172.957 225.959C178.787 227.019 184.067 225.219 189.947 225.959L189.937 225.969Z" fill="#E26983"/>
<path d="M193.427 226.969C193.567 228.329 193.377 228.799 192.927 229.969C189.057 232.379 184.487 233.259 179.937 232.969C179.467 229.389 186.697 227.149 189.927 225.979C190.247 226.019 190.697 224.669 193.427 226.979V226.969Z" fill="#E08EA6"/>
<path d="M179.937 232.959C184.487 233.259 189.057 232.369 192.927 229.959C189.587 238.539 169.297 237.019 170.947 228.959C173.797 231.769 175.917 232.689 179.937 232.959Z" fill="#CA426E"/>
<path d="M89.0171 370.849C86.0871 370.269 83.1671 367.279 85.0171 364.359C85.3271 364.459 88.3771 363.119 90.5171 366.609C93.0871 370.799 89.5671 370.619 89.0171 370.859V370.849Z" fill="#260817"/>
<path d="M85.7672 365.359C87.1172 364.979 90.2072 368.049 90.0172 368.609C89.0172 371.579 82.9172 366.159 85.7672 365.359Z" fill="#F6E7E6"/>
<path d="M112.997 393.329C101.037 394.499 102.737 402.619 102.007 405.819C101.997 405.869 101.097 405.639 101.007 406.069C100.527 408.369 101.867 412.389 100.257 412.319C97.6468 410.649 95.1968 408.789 94.0068 405.829C94.1268 384.379 120.217 386.409 121.487 391.089C122.587 395.159 118.707 392.779 112.997 393.339V393.329Z" fill="#AB1156"/>
<path d="M105.997 403.329C104.887 406.739 105.997 413.479 109.247 415.319C116.057 419.169 122.107 412.799 122.487 414.819C120.217 417.799 118.027 419.539 114.497 420.819C108.257 420.139 101.597 420.609 97.007 415.319C94.447 412.369 93.987 409.479 94.007 405.829C95.187 408.799 97.647 410.659 100.257 412.319C101.867 412.389 100.527 408.369 101.007 406.069C101.097 405.639 101.997 405.869 102.007 405.819C101.647 406.719 103.417 407.439 103.757 407.319C103.977 407.239 105.157 404.679 106.007 403.319L105.997 403.329Z" fill="#820C48"/>
<path d="M112.997 393.329C112.987 394.149 113.817 393.699 114.497 393.829L113.997 395.329C108.867 395.469 107.377 401.129 106.007 403.319C105.157 404.679 103.977 407.239 103.757 407.319C103.417 407.439 101.647 406.729 102.007 405.819C102.747 402.619 101.037 394.499 112.997 393.329Z" fill="#9F3965"/>
<path d="M114.497 420.809C106.707 423.619 100.757 422.819 95.0168 416.809L97.0168 415.309C101.607 420.599 108.257 420.129 114.507 420.809H114.497Z" fill="#4B0A28"/>
</svg>
